<svg width="16" height="16" viewBox="0 0 16 16" fill="none" xmlns="http://www.w3.org/2000/svg">
<path id="Vector" d="M5.01671 2.3864C4.98722 2.38629 4.95799 2.39143 4.93071 2.40152C4.90343 2.4116 4.87863 2.42643 4.85774 2.44516C4.83684 2.46389 4.82026 2.48615 4.80895 2.51067C4.79764 2.53518 4.79181 2.56146 4.79182 2.588C4.79182 2.6992 4.89226 2.7888 5.01671 2.7888H8.31721C8.44165 2.7888 8.5421 2.6992 8.5421 2.588C8.5421 2.56146 8.53628 2.53518 8.52496 2.51067C8.51365 2.48615 8.49707 2.46389 8.47618 2.44516C8.45528 2.42643 8.43048 2.4116 8.4032 2.40152C8.37592 2.39143 8.3467 2.38629 8.31721 2.3864H5.01671ZM8.31721 1.3128C8.96966 1.3128 9.51989 1.7048 9.68967 2.2408L11.623 2.2416C12.175 2.2448 12.6204 2.4056 12.8959 2.752C13.1324 3.0496 13.2266 3.432 13.2026 3.8616L13.2 14.272C13.2373 14.7136 13.1448 15.104 12.9084 15.428C12.6311 15.8064 12.1786 15.996 11.6177 16.0008H1.90199C1.22642 15.9768 0.725971 15.8336 0.413076 15.5136C0.122405 15.2168 -0.0047082 14.8096 0.000625226 14.3136V3.872C-0.0109305 3.392 0.137516 2.9872 0.461077 2.688C0.795305 2.3808 1.28954 2.2448 1.9251 2.2408H3.64513C3.81402 1.7048 4.36425 1.3128 5.01671 1.3128H8.31721ZM8.31721 3.8624H5.01671C4.53137 3.8624 4.1038 3.6464 3.84602 3.3152H1.92866C1.58821 3.3168 1.39354 3.3712 1.32242 3.4368C1.24153 3.5112 1.19442 3.6384 1.19976 3.8616V14.3176C1.19709 14.5776 1.24598 14.7352 1.31531 14.8056C1.36331 14.8544 1.56954 14.9136 1.92421 14.9264H11.6133C11.791 14.9248 11.8622 14.8944 11.903 14.8392C11.9839 14.7288 12.0213 14.572 12.0008 14.3128L12.0017 3.836C12.0142 3.6016 11.9777 3.4504 11.9164 3.3736C11.8933 3.3456 11.8133 3.316 11.6177 3.3152H9.487C9.22922 3.6464 8.80166 3.8624 8.31632 3.8624H8.31721ZM14.4 0C15.2835 0 16 0.6408 16 1.432V12.6976C16 13.488 15.2835 14.1296 14.4 14.1296H12.6595V13.0552H14.3991C14.6204 13.0552 14.7991 12.8952 14.7991 12.6976V1.4312C14.7986 1.33607 14.7562 1.245 14.6813 1.17796C14.6063 1.11092 14.5048 1.07339 14.3991 1.0736H7.68253C7.46208 1.0736 7.28252 1.2336 7.28252 1.4312V1.5568H6.0825V1.4312C6.0825 0.6408 6.79896 0 7.68253 0H14.4ZM6.39629 9.4008C6.72785 9.4008 6.9963 9.6408 6.9963 9.9376C6.9963 10.2336 6.72785 10.4744 6.39629 10.4744H2.79534C2.71678 10.4747 2.63892 10.4611 2.5662 10.4343C2.49349 10.4076 2.42734 10.3682 2.37154 10.3184C2.31574 10.2686 2.27138 10.2095 2.241 10.1443C2.21061 10.0791 2.19479 10.0091 2.19444 9.9384C2.19444 9.6416 2.46378 9.4008 2.79534 9.4008H6.39629ZM9.99812 7.2536C10.3288 7.2536 10.5981 7.4936 10.5981 7.7904C10.5981 8.0864 10.3288 8.3272 9.99812 8.3272H2.79534C2.71678 8.32752 2.63892 8.3139 2.5662 8.28714C2.49349 8.26037 2.42734 8.22098 2.37154 8.1712C2.31574 8.12143 2.27138 8.06226 2.241 7.99705C2.21061 7.93185 2.19479 7.8619 2.19444 7.7912C2.19444 7.4944 2.46378 7.2536 2.79534 7.2536H9.99812ZM9.99812 5.1064C10.3288 5.1064 10.5981 5.3464 10.5981 5.6432C10.5979 5.7139 10.5822 5.78387 10.5519 5.84911C10.5216 5.91436 10.4774 5.97359 10.4217 6.02344C10.3659 6.07328 10.2999 6.11277 10.2272 6.13963C10.1545 6.16649 10.0767 6.18021 9.99812 6.18H2.79534C2.71678 6.18032 2.63892 6.1667 2.5662 6.13994C2.49349 6.11317 2.42734 6.07378 2.37154 6.024C2.31574 5.97423 2.27138 5.91506 2.241 5.84985C2.21061 5.78465 2.19479 5.7147 2.19444 5.644C2.19444 5.3472 2.46378 5.1064 2.79534 5.1064H9.99812Z" fill="white"/>
</svg>
