<svg width="37" height="29" viewBox="0 0 37 29" fill="none" xmlns="http://www.w3.org/2000/svg">
<g id="&#240;&#159;&#166;&#134; icon &#34;message&#34;">
<path id="Vector" d="M33.9735 10.2886L8.49623 0.442067C7.49078 0.0552506 6.35545 -0.0824588 5.24503 0.0477145C4.13462 0.177888 3.10317 0.569609 2.2913 1.16947C1.47944 1.76933 0.926671 2.54814 0.708367 3.39971C0.490064 4.25128 0.616847 5.13418 1.07143 5.92801L5.43896 13.4817C5.53806 13.6644 5.5891 13.8604 5.5891 14.0585C5.5891 14.2565 5.53806 14.4526 5.43896 14.6352L1.07143 22.1889C0.701466 22.8314 0.545064 23.5351 0.616439 24.2361C0.687814 24.9372 0.984704 25.6133 1.48013 26.2031C1.97555 26.7929 2.6538 27.2776 3.45323 27.6133C4.25267 27.9489 5.14794 28.1248 6.0577 28.125C6.90979 28.1184 7.74919 27.9646 8.51443 27.6749L33.9917 17.8283C34.8954 17.4769 35.655 16.9383 36.1858 16.2727C36.7166 15.607 36.9977 14.8404 36.9977 14.0585C36.9977 13.2765 36.7166 12.51 36.1858 11.8443C35.655 11.1786 34.8954 10.64 33.9917 10.2886H33.9735ZM32.3539 15.3104L6.87661 25.157C6.54206 25.2811 6.1664 25.3233 5.79999 25.2777C5.43358 25.2322 5.09394 25.1011 4.82662 24.9022C4.5593 24.7032 4.37707 24.4458 4.30437 24.1645C4.23167 23.8832 4.27197 23.5914 4.41987 23.3283L8.76921 15.7746C8.82551 15.6737 8.87412 15.5704 8.91479 15.4651H21.4532C21.9359 15.4651 22.3988 15.3169 22.74 15.0531C23.0813 14.7893 23.273 14.4315 23.273 14.0585C23.273 13.6854 23.0813 13.3276 22.74 13.0638C22.3988 12.8 21.9359 12.6518 21.4532 12.6518H8.91479C8.87412 12.5466 8.82551 12.4432 8.76921 12.3424L4.41987 4.78863C4.27197 4.52553 4.23167 4.23377 4.30437 3.95247C4.37707 3.67116 4.5593 3.41377 4.82662 3.21479C5.09394 3.01581 5.43358 2.88476 5.79999 2.83922C6.1664 2.79367 6.54206 2.83581 6.87661 2.95998L32.3539 12.8065C32.652 12.9246 32.9021 13.1039 33.0768 13.3248C33.2515 13.5457 33.3439 13.7996 33.3439 14.0585C33.3439 14.3174 33.2515 14.5712 33.0768 14.7921C32.9021 15.013 32.652 15.1923 32.3539 15.3104Z" fill="#0CC0DF"/>
</g>
</svg>
